# xmcd
#
# Track frame offsets:
#	150
#	10727
#	20315
#	37466
#	49337
#	60130
#	72139
#	81576
#	88004
#	98703
#	110651
#	119787
#	140489
#	148235
#	161785
#	173756
#
# Disc length: 2451 seconds
#
# Revision: 1
# Processed by: cddbd v1.4PL0 Copyright (c) Steve Scherf et al.
# Submitted via: audiograbber 1.80.04
#
DISCID=e7099110
DTITLE=Covered Sleigh Band - Country Silver Spurs Christmas
DYEAR=1900
DGENRE=Christmas
TTITLE0=Jingle Bells
TTITLE1=Santa Claus Is Coming To Town
TTITLE2=Frosty The Snowman
TTITLE3=Deck The Halls
TTITLE4=Go Tell It On The Mountain
TTITLE5=We Three Kings
TTITLE6=O Holly Night
TTITLE7=The First Noel
TTITLE8=Rudulf The Red Nosed Reindeer
TTITLE9=We Wish You A Merry Christmas
TTITLE10=O Little Town Of Bethlehem
TTITLE11=White Christmas
TTITLE12=It Came Upon A Midnight Clear
TTITLE13=Away In A Manger
TTITLE14=God Rest Ye Merry Gentlemen
TTITLE15=Jolly Old St. Nick
EXTD=
EXTT0=
EXTT1=
EXTT2=
EXTT3=
EXTT4=
EXTT5=
EXTT6=
EXTT7=
EXTT8=
EXTT9=
EXTT10=
EXTT11=
EXTT12=
EXTT13=
EXTT14=
EXTT15=
PLAYORDER=
